<svg xmlns="http://www.w3.org/2000/svg" viewBox="0 0 512 512">
  <rect width="512" height="512" fill="#10b981" rx="100" />
  <path fill="white" d="M315.29 78.11a25.6 25.6 0 0 1 16.2 32.38l-102.4 307.2a25.6 25.6 0 0 1-48.59-16.2l102.4-307.2a25.6 25.6 0 0 1 32.39-16.18zm-169.19 83a25.6 25.6 0 0 1 0 36.2l-58.69 58.7 58.69 58.69a25.6 25.6 0 1 1-36.2 36.2l-76.8-76.8a25.6 25.6 0 0 1 0-36.2l76.8-76.8a25.6 25.6 0 0 1 36.2 0zm219.8 0a25.6 25.6 0 0 1 36.2 0l76.8 76.8a25.6 25.6 0 0 1 0 36.2l-76.8 76.8a25.6 25.6 0 0 1-36.2-36.2l58.69-58.69-58.69-58.7a25.6 25.6 0 0 1 0-36.2z"/>
</svg>